<?xml version="1.0" standalone="no"?>
<!DOCTYPE svg PUBLIC "-//W3C//DTD SVG 20010904//EN"
 "http://www.w3.org/TR/2001/REC-SVG-20010904/DTD/svg10.dtd">
<svg version="1.0" xmlns="http://www.w3.org/2000/svg"
 width="1024.000000pt" height="1024.000000pt" viewBox="0 0 1024.000000 1024.000000"
 preserveAspectRatio="xMidYMid meet">
<metadata>
Created by potrace 1.11, written by Peter Selinger 2001-2013
</metadata>
<g transform="translate(0.000000,1024.000000) scale(0.100000,-0.100000)"
fill="#000000" stroke="none">
<path d="M4858 10236 c-1 -2 -50 -6 -108 -10 -58 -3 -116 -8 -130 -11 -14 -2
-56 -7 -95 -10 -38 -3 -77 -8 -85 -10 -8 -2 -33 -6 -55 -9 -67 -8 -226 -35
-300 -52 -38 -8 -81 -17 -95 -20 -14 -3 -95 -23 -180 -45 -513 -132 -1046
-370 -1495 -667 -128 -84 -406 -289 -455 -334 -14 -13 -38 -34 -55 -46 -16
-13 -73 -63 -125 -110 -241 -221 -463 -465 -649 -712 -39 -52 -75 -100 -80
-106 -50 -60 -268 -409 -321 -514 -19 -36 -43 -78 -54 -95 -12 -16 -21 -32
-20 -35 0 -3 -28 -63 -62 -135 -76 -160 -159 -361 -214 -520 -69 -202 -140
-458 -174 -635 -2 -14 -9 -47 -15 -75 -6 -27 -13 -66 -16 -85 -12 -77 -34
-238 -40 -285 -3 -27 -8 -63 -10 -80 -26 -192 -26 -858 0 -1016 2 -13 6 -51
10 -84 3 -33 8 -76 10 -95 10 -67 27 -175 31 -200 2 -14 7 -41 10 -60 3 -19 9
-51 14 -70 5 -19 12 -51 15 -70 3 -19 20 -89 36 -155 17 -66 32 -127 34 -135
8 -34 66 -221 94 -300 179 -514 426 -977 757 -1415 62 -82 125 -163 139 -180
14 -16 36 -41 47 -55 58 -69 181 -202 272 -293 647 -648 1433 -1102 2321
-1339 61 -16 130 -33 155 -38 25 -5 76 -16 113 -24 38 -9 85 -18 106 -21 20
-3 48 -8 61 -10 24 -5 105 -18 181 -29 20 -3 62 -8 95 -11 32 -4 75 -8 94 -10
221 -26 874 -26 1009 0 9 2 47 6 83 9 37 4 75 8 85 10 10 2 41 7 68 10 42 6
118 19 235 40 107 20 311 68 423 101 31 9 58 16 59 15 12 -3 407 139 513 185
362 157 626 301 920 503 105 72 234 167 301 222 108 88 138 114 224 191 182
165 404 394 515 534 22 28 42 52 45 55 14 13 145 186 212 280 67 95 228 345
228 355 0 2 21 38 46 81 41 70 175 338 234 469 137 304 300 853 345 1162 4 21
10 63 15 93 17 102 33 242 47 415 15 193 8 753 -11 865 -3 14 -7 52 -10 85 -8
77 -15 133 -21 165 -3 14 -7 43 -10 65 -3 22 -8 51 -11 65 -2 14 -6 36 -9 50
-3 14 -9 50 -15 80 -16 86 -16 87 -54 238 -69 275 -144 495 -277 812 -39 94
-223 450 -289 560 -303 503 -676 939 -1130 1320 -10 8 -29 24 -42 35 -26 22
-296 224 -343 256 -153 105 -440 274 -595 350 -351 171 -641 280 -1005 375
-121 31 -280 67 -350 78 -16 3 -70 12 -120 20 -49 8 -110 18 -135 21 -25 3
-56 8 -70 10 -14 2 -61 7 -105 10 -44 4 -98 9 -120 12 -47 5 -642 13 -647 9z"/>
</g>
</svg>
