<?xml version="1.0" standalone="no"?>
<!DOCTYPE svg PUBLIC "-//W3C//DTD SVG 20010904//EN"
 "http://www.w3.org/TR/2001/REC-SVG-20010904/DTD/svg10.dtd">
<svg version="1.0" xmlns="http://www.w3.org/2000/svg"
 width="1024.000000pt" height="1024.000000pt" viewBox="0 0 1024.000000 1024.000000"
 preserveAspectRatio="xMidYMid meet">
<metadata>
Created by potrace 1.11, written by Peter Selinger 2001-2013
</metadata>
<g transform="translate(0.000000,1024.000000) scale(0.100000,-0.100000)"
fill="#000000" stroke="none">
<path d="M2387 7142 c-10 -10 -17 -26 -17 -34 0 -9 52 -205 116 -435 63 -230
266 -962 451 -1628 184 -665 386 -1397 449 -1625 138 -498 141 -508 164 -520
11 -6 170 -10 408 -10 357 0 391 1 410 18 14 12 86 223 237 687 119 369 266
821 326 1005 59 184 129 409 153 500 25 91 45 162 45 158 5 -45 110 -398 221
-738 76 -234 224 -688 329 -1010 143 -440 195 -589 212 -602 19 -17 54 -18
409 -18 355 0 390 1 408 18 14 11 31 56 51 132 17 63 104 394 195 735 90 341
242 910 336 1265 94 355 255 958 357 1340 102 382 185 705 185 718 0 12 -8 32
-17 42 -17 19 -33 20 -447 20 -274 0 -436 -4 -448 -10 -11 -6 -26 -33 -34 -63
-38 -133 -607 -2445 -626 -2542 -12 -60 -24 -117 -27 -125 -3 -8 -24 57 -48
145 -24 88 -93 313 -153 500 -129 400 -467 1450 -477 1482 -16 54 -6 53 -430
53 l-395 0 -14 -22 c-19 -29 -592 -1824 -646 -2023 -22 -82 -42 -154 -43 -159
-2 -5 -16 53 -32 130 -26 129 -129 525 -527 2024 -99 372 -159 581 -170 592
-17 17 -52 18 -456 18 -413 0 -440 -1 -455 -18z"/>
</g>
</svg>
